HIERARCHY
ROOT hip
{
  OFFSET 0 0 0
  CHANNELS 6 Xposition Yposition Zposition Zrotation Yrotation Xrotation
  JOINT abdomen
  {
    OFFSET 0 20.6881 -0.73152
    CHANNELS 3 Zrotation Xrotation Yrotation
    JOINT chest
    {
      OFFSET 0 11.7043 -0.48768
      CHANNELS 3 Zrotation Xrotation Yrotation
      JOINT neck
      {
        OFFSET 0 22.1894 -2.19456
        CHANNELS 3 Zrotation Xrotation Yrotation
        JOINT head
        {
          OFFSET -0.24384 7.07133 1.2192
          CHANNELS 3 Zrotation Xrotation Yrotation
          JOINT leftEye
          {
            OFFSET 4.14528 8.04674 8.04672
            CHANNELS 3 Zrotation Xrotation Yrotation
            End Site
            {
              OFFSET 1 0 0
            }
          }
          JOINT rightEye
          {
            OFFSET -3.6576 8.04674 8.04672
            CHANNELS 3 Zrotation Xrotation Yrotation
            End Site
            {
              OFFSET 1 0 0
            }
          }
        }
      }
      JOINT rCollar
      {
        OFFSET -2.68224 19.2634 -4.8768
        CHANNELS 3 Zrotation Xrotation Yrotation
        JOINT rShldr
        {
          OFFSET -8.77824 -1.95073 1.46304
          CHANNELS 3 Zrotation Xrotation Yrotation
          JOINT rForeArm
          {
            OFFSET -28.1742 -1.7115 0.48768
            CHANNELS 3 Zrotation Xrotation Yrotation
            JOINT rHand
            {
              OFFSET -22.5879 0.773209 7.07136
              CHANNELS 3 Zrotation Xrotation Yrotation
              JOINT rThumb1
              {
                OFFSET -1.2192 -0.487915 3.41376
                CHANNELS 3 Zrotation Xrotation Yrotation
                JOINT rThumb2
                {
                  OFFSET -3.37035 -0.52449 3.41376
                  CHANNELS 3 Zrotation Xrotation Yrotation
                  End Site
                  {
                    OFFSET -1.78271 -1.18214 1.43049
                  }
                }
              }
              JOINT rIndex1
              {
                OFFSET -7.75947 0.938293 5.60832
                CHANNELS 3 Zrotation Xrotation Yrotation
                JOINT rIndex2
                {
                  OFFSET -2.54057 -0.884171 1.56538
                  CHANNELS 3 Zrotation Xrotation Yrotation
                  End Site
                  {
                    OFFSET -1.62519 -0.234802 1.16502
                  }
                }
              }
              JOINT rMid1
              {
                OFFSET -8.24714 1.18213 3.41376
                CHANNELS 3 Zrotation Xrotation Yrotation
                JOINT rMid2
                {
                  OFFSET -3.10165 -0.590103 1.0647
                  CHANNELS 3 Zrotation Xrotation Yrotation
                  End Site
                  {
                    OFFSET -2.48547 -0.328903 0.83742
                  }
                }
              }
              JOINT rRing1
              {
                OFFSET -8.82822 0.546677 1.51678
                CHANNELS 3 Zrotation Xrotation Yrotation
                JOINT rRing2
                {
                  OFFSET -2.60934 -0.819778 -0.0198488
                  CHANNELS 3 Zrotation Xrotation Yrotation
                  End Site
                  {
                    OFFSET -2.33842 -0.294052 0.168128
                  }
                }
              }
              JOINT rPinky1
              {
                OFFSET -8.27202 -0.0477905 -0.4584
                CHANNELS 3 Zrotation Xrotation Yrotation
                JOINT rPinky2
                {
                  OFFSET -1.82734 -0.647385 -0.700984
                  CHANNELS 3 Zrotation Xrotation Yrotation
                  End Site
                  {
                    OFFSET -1.69225 -0.51767 -0.607171
                  }
                }
              }
            }
          }
        }
      }
      JOINT lCollar
      {
        OFFSET 2.68224 19.2634 -4.8768
        CHANNELS 3 Zrotation Xrotation Yrotation
        JOINT lShldr
        {
          OFFSET 8.77824 -1.95073 1.46304
          CHANNELS 3 Zrotation Xrotation Yrotation
          JOINT lForeArm
          {
            OFFSET 28.1742 -1.7115 0.48768
            CHANNELS 3 Zrotation Xrotation Yrotation
            JOINT lHand
            {
              OFFSET 22.5879 0.773209 7.07136
              CHANNELS 3 Zrotation Xrotation Yrotation
              JOINT lThumb1
              {
                OFFSET 1.2192 -0.487915 3.41376
                CHANNELS 3 Zrotation Xrotation Yrotation
                JOINT lThumb2
                {
                  OFFSET 3.37035 -0.52449 3.41376
                  CHANNELS 3 Zrotation Xrotation Yrotation
                  End Site
                  {
                    OFFSET 1.78271 -1.18214 1.43049
                  }
                }
              }
              JOINT lIndex1
              {
                OFFSET 7.75947 0.938293 5.60832
                CHANNELS 3 Zrotation Xrotation Yrotation
                JOINT lIndex2
                {
                  OFFSET 2.54057 -0.884171 1.56538
                  CHANNELS 3 Zrotation Xrotation Yrotation
                  End Site
                  {
                    OFFSET 1.62519 -0.234802 1.16502
                  }
                }
              }
              JOINT lMid1
              {
                OFFSET 8.24714 1.18213 3.41376
                CHANNELS 3 Zrotation Xrotation Yrotation
                JOINT lMid2
                {
                  OFFSET 3.10165 -0.590103 1.0647
                  CHANNELS 3 Zrotation Xrotation Yrotation
                  End Site
                  {
                    OFFSET 2.48547 -0.328903 0.83742
                  }
                }
              }
              JOINT lRing1
              {
                OFFSET 8.82822 0.546677 1.51678
                CHANNELS 3 Zrotation Xrotation Yrotation
                JOINT lRing2
                {
                  OFFSET 2.60934 -0.819778 -0.0198488
                  CHANNELS 3 Zrotation Xrotation Yrotation
                  End Site
                  {
                    OFFSET 2.33842 -0.294052 0.168128
                  }
                }
              }
              JOINT lPinky1
              {
                OFFSET 8.27202 -0.0477905 -0.4584
                CHANNELS 3 Zrotation Xrotation Yrotation
                JOINT lPinky2
                {
                  OFFSET 1.82734 -0.647385 -0.700984
                  CHANNELS 3 Zrotation Xrotation Yrotation
                  End Site
                  {
                    OFFSET 1.69225 -0.51767 -0.607171
                  }
                }
              }
            }
          }
        }
      }
    }
  }
  JOINT rButtock
  {
    OFFSET -8.77824 4.35084 1.2192
    CHANNELS 3 Zrotation Xrotation Yrotation
    JOINT rThigh
    {
      OFFSET 0 -1.70687 -2.19456
      CHANNELS 3 Zrotation Xrotation Yrotation
      JOINT rShin
      {
        OFFSET 0 -36.8199 0.73152
        CHANNELS 3 Zrotation Xrotation Yrotation
        JOINT rFoot
        {
          OFFSET 0.73152 -45.1104 -5.12064
          CHANNELS 3 Zrotation Xrotation Yrotation
          End Site
          {
            OFFSET -1.1221 -3.69964 12.103
          }
        }
      }
    }
  }
  JOINT lButtock
  {
    OFFSET 8.77824 4.35084 1.2192
    CHANNELS 3 Zrotation Xrotation Yrotation
    JOINT lThigh
    {
      OFFSET 0 -1.70687 -2.19456
      CHANNELS 3 Zrotation Xrotation Yrotation
      JOINT lShin
      {
        OFFSET 0 -36.8199 0.73152
        CHANNELS 3 Zrotation Xrotation Yrotation
        JOINT lFoot
        {
          OFFSET -0.73152 -45.1104 -5.12064
          CHANNELS 3 Zrotation Xrotation Yrotation
          End Site
          {
            OFFSET 1.1221 -3.69964 12.103
          }
        }
      }
    }
  }
}
MOTION
Frames:	4
Frame Time:	0.03333
0.016064848750829697 61.47608160972595 0.011486141011118889 -6.912068624009217 5.8133814695938915 2.5383864441823483 -2.4408656435431406 15.082884762991133 3.953156824139293 2.6375620715914025 -9.90423618806111 1.146593887810384 -4.945516716197738 15.229464037674191 -3.2080581043283605 8.75148210994961 -25.17157277090938 -4.689449509119375 0.08192529096909974 -0.025343843802155437 -0.049907965481658385 -0.02499038151260728 -0.02921960263016744 -0.003539758877572331 0.03694569383978901 0.030569738930008555 0.005983679269860907 47.043706550028205 29.46380024912879 15.950718353649197 -23.975891807637993 -30.22835454934709 66.91123103416706 -4.828227853996633 -11.501061845250161 -5.429247361804143 0.04499344427063587 -0.02198589869059503 0.07543602428820582 0.02298081179274259 -0.025961228870101122 -0.06753520296579357 -0.026668580336020566 -0.030641189112029232 0.004939667512947269 7.557310618484799 5.385415476579232 0.4114828255567141 0.015495031184114395 -0.006094289647796768 -0.012177747042456718 2.8228461073102196 0.9817158960106265 0.12234639049787487 -0.014070243051079158 0.015469524696432629 0.0649421856804217 10.06528094963261 0.7032495637968826 0.03904317556479117 -0.061171921258574666 -0.008994825528377886 0.07305615692970596 2.259763391143664 -0.6950335932772977 -0.17304404324146308 -0.008749739131050788 0.09119375095110126 -0.06430633775737583 -55.89512286527156 31.808880813855552 -24.792196743650187 23.1470585971407 -28.117098680666544 -63.05648400247614 5.49805724882379 -14.624258050792287 4.553816039468085 -0.06466828442253361 0.021221344390376727 -0.03778407287998163 -0.02656570061164725 -0.04233887524145455 0.05795415510755819 -0.015366965137176657 0.03649343393111368 0.007890896203774575 -7.706530615055713 5.496135404346078 -0.3844203887655071 -0.011464339119734176 -0.04873718834859622 -0.02626167715230235 -2.8038464420299483 0.9398870704815279 -0.12230745041547786 0.002596112214839534 0.03422607793093389 0.004421213466260988 -10.110754641579263 0.7193335920752049 -0.020085131749774526 -0.05387159629416819 0.018847266684415498 -0.06965064061779347 -2.2125535504873595 -0.7059059204146358 0.19751967928666 -0.12092529760390232 -0.04987067958570099 0.012475714044998525 -31.71435441083716 -36.18804977002006 -29.013591745081985 -6.3081663494851385 62.336021988444855 7.188987544849983 -4.721509563309769 -10.281675002916954 -10.320699288739823 0.02069125767776027 0.005596232787127967 -0.029251032172520078 37.41314665049939 -34.732089080499705 32.04545807613729 6.352717539007016 63.763463223085814 -7.416274042313205 5.108560588761936 -10.281424847238602 13.512615735068739
-0.20950362086296082 63.06557059288025 -0.04655392840504646 -6.413983908975208 4.904776345345905 2.999704464357591 -2.765405710494293 14.284086455595325 3.4170147219367952 2.774163293670719 -9.358965111146068 1.045347966030875 -5.052865945609183 15.120823048735968 -4.147187130533723 8.764629370328239 -24.921966922785845 -5.89553156983622 0.0007958771208651577 -0.09009382369046476 0.007052717266780295 0.0719125004501255 0.037169142411268924 0.017586736596791133 -0.05296670295084728 -0.047449057359814126 0.040525226563084764 50.9980411549125 30.32869685844375 16.318747729149703 -23.56140860804494 -27.96331184886183 64.8403176778192 -3.8883293642925865 -9.623495776379723 -4.280179878297157 -0.008216290684702214 0.05930637248066205 0.04721090787336282 0.022984226887327597 -0.01223745783684144 0.037072185741566475 -0.04135348705154798 -0.042291250680249574 -0.06114940297865478 7.683823651160006 5.3963651235924095 0.4416305868620628 -0.020856622960868623 -0.01327655372518252 0.01990741342922197 2.8292137646073754 0.8680787304162451 0.03474423849292928 -0.002846481336602814 -0.046529970029624286 -0.010590635194927896 10.31727394887106 0.6950943179278875 0.0930327260242743 -0.0423613134800951 -0.13077475055217805 -0.0635761078257795 2.250790870451795 -0.8280629999466675 -0.19393647133462139 0.02336010073508986 0.017265064035352624 -0.04185209086095891 -60.06874752364829 32.37374428840478 -26.80508252035692 22.775489476102837 -26.338134930201704 -61.42710139483457 4.634255177323325 -11.796998574061181 3.364356097870113 -0.017613510404729055 -0.09151893198861734 0.011123923558717799 0.07486655726615601 -0.0013494692891799802 0.05111361393208464 -0.06049968123385732 0.04554076653873603 0.017176164854436675 -7.751972717377455 5.48642287534632 -0.48390134697480236 0.011760812018395041 -0.012957882711719113 0.014871856463630068 -2.924469290319666 0.97180625202029 -0.2599723677363178 -0.11717408300653727 -0.0060594450108591245 0.05166629896590032 -10.215968583101432 0.71264310161806 -0.13219905843753726 0.06967993572603047 -0.009165953783598439 -0.016546987038002142 -2.1925265820672357 -0.6586256434325151 0.14413406696019407 -0.010280555278779895 -0.07615975753596273 0.014052767371757445 -32.69137882066163 -35.38312563671239 -27.04674315092843 -4.5618295589118025 62.180068279125955 6.100917065725795 -4.451046878781957 -9.76107627683129 -10.582748033983824 0.102431973456711 0.10334094890527804 0.05101478963253102 38.14635721261651 -33.378905662515116 30.207775189377845 4.525402025634009 62.974480751300966 -5.906322414951194 5.162071705814401 -9.917933278667926 14.849959944368065
-0.19558249041438103 62.17663884162903 -0.39376956410706043 -14.739370643969096 -26.741812770527797 8.519182253635599 9.063259754993183 12.201359433304276 9.863833911573193 -0.4027895955688746 -7.917929238735839 2.465079731367894 -2.8908011534665574 12.767675176825774 1.6478123790129604 5.938847775778794 -24.6287007979403 4.3239404734226055 -0.24292872456003528 0.3196784130051314 -0.04251236471441552 0.11151671202220975 0.030944598921565893 0.23232578968851605 0.18472916289003263 0.17672057932520757 -0.03589125003613523 62.684887560681595 44.59071924169899 -2.5646547113999825 -24.781847299510325 -29.357109279198607 65.55222829500963 -2.2045270109955366 -8.7542065016548 -2.8853286778374962 0.31635814065571183 -0.13739880674747393 0.1615839196291073 -0.026547611282517296 0.11230277074614302 0.07840288770893011 0.13220482140964945 -0.1257467708276966 -0.13635154664864058 7.250547186065662 5.402513147619067 0.7298573661214607 -0.33486752641962325 -0.08022393353553188 -0.07590429245274838 3.0546923963746595 1.0309794891729898 0.3052384326043724 -0.09824368011331802 -0.17690590156729705 0.2608426832469655 10.079807054449935 0.8849031405284261 0.24933296072184782 -0.11507897583948874 -0.1367896926117263 -0.08827955469218011 2.4103398205950612 -0.8395671729430847 0.04063020737104066 0.010586899935225545 -0.10636071961164348 -0.2084134574868601 -59.11739096472473 26.70236501297639 -21.592316296749036 20.98199791327338 -21.07436939160863 -50.548614707525665 -0.21519930378812066 0.37310591360111656 1.758769015523229 0.043215247208905364 0.048208755822419375 0.036844815147399096 -0.08714072736978627 -0.3279796808480621 0.17502637224592707 -0.028931187220293073 0.2188695166107976 -0.29266853665402176 -8.15944899665572 5.713818655836262 -0.6250135888357947 0.09185182366937612 -0.1924121385305185 0.02765423533019159 -3.207901650307685 0.957610450882359 -0.44874236125277994 0.011420289735672882 -0.0768462449084019 -0.03681127785135727 -10.353463706188373 0.6395114657619402 -0.23707175730547 -0.10579469436460512 0.2741841237692632 0.04444158633004 -2.51474246370988 -0.8148980237648796 0.2947341886302746 -0.3617265516396108 0.01684372674092746 0.12587342281203276 -1.6215400563705062 -0.0052771749074811015 -2.414229826770795 3.181332427879747 44.753612423214626 -1.5458041440890546 -12.082395467209224 -17.608222557650993 -31.18490888222904 0.16454480663430782 0.028265777384745738 -0.05121852136886781 68.47533069372165 -59.410945665062705 58.75597833498267 8.67909235003123 74.71959208578485 -8.263825386230918 -0.9587293212457717 0.6094105019245766 -0.06460302409944826
-0.47060903161764145 61.91767454147339 -1.0283171199262142 -8.11721879079118 -26.68148512468366 18.05034753281509 8.992770495211358 10.692352933368666 9.559870002940116 -0.7616877552010126 -7.06132106397869 3.0093792138735025 -2.92809441322165 12.36227100618696 -0.624982212654295 7.0246907594599115 -25.901165040313675 2.4640739860126093 -0.2488421209165325 0.06737560065479742 -0.2367640252668492 -0.0781457951197026 0.08538430153603518 0.03478755416526332 0.05310015844392698 -0.32862910910816867 -0.11509850591164675 64.48499074662763 46.564152138212435 -0.5812247658191669 -25.000408230308857 -27.143335686170754 63.358371533601535 0.24582688588266274 3.4762687474207716 0.636378970253843 0.4466963994312438 0.35925546390309426 0.46362875854882274 0.7696361210433504 -0.20807707067023698 0.11574918815179625 -0.02559794818362107 -0.2014275079872593 0.1991276018668162 7.469759546156283 5.400682656921504 0.7132507216499266 0.17163817153077762 -0.2674626840174417 -0.3564129579500318 2.6871148805764338 1.3078247720367662 0.27199040574607264 0.0428963093911775 -0.5842383199861706 0.06995490420097637 9.557449554652992 0.3035357945103352 0.4074885522744318 -0.1804516768810328 -0.18908471582681158 -0.4018557806432869 2.5943495991468475 -0.894819881512197 -0.3658569751380438 0.002206044380208337 0.1668731007284888 0.1487805699473597 -57.472456016343045 33.28220384424608 -19.715851595882263 21.856982711992448 -20.19237852634842 -49.5518852019457 -1.0179433260900799 -3.6921270577420926 0.29800376816944796 -0.387059776632041 0.3979148148530425 0.5974608725282278 0.41721207360988544 -0.14842062431418532 -0.17383727900011015 -0.18717909304837804 0.002473115448926414 0.2544467980586304 -7.10912427731914 5.182061108194089 -0.6101921850585729 0.11598405594579476 0.37203021216769244 0.28912988501414694 -3.188053547466451 0.7992883734687559 -0.03515135512005906 -0.06909616799540595 -0.204657867299558 -0.0062374301356761365 -10.128747921174016 0.6230184265462105 0.23431796377033837 0.13129509890914196 0.06822969446616636 0.11281231353039654 -2.0684363455566785 -0.9011941555551115 0.12598636105717598 -0.4277568718321802 -0.1562904696614945 0.142597621242485 -4.682107482648434 3.471434681035695 -8.106140223957418 -1.1727095429887509 42.9954875799075 3.2593871893844177 -13.401865925224275 -15.520974803903043 -34.335610259558806 0.6602346332297291 0.32530392756028315 -0.06549030836131522 67.85019079974705 -55.59614157963801 59.85449814976333 1.4607211179284405 74.81746186640197 -2.460600407932835 1.0460684442666057 -0.015918502912655185 1.8781257174955557
